<svg version="1.0" xmlns="http://www.w3.org/2000/svg" viewBox="0 0 567 567" stroke="white" stroke-width="4">
<path d="M271.7 58.7c-.3.5-.8 2.3-1.2 4.1-.5 2.5-1.6 3.7-4.1 4.9-3.3 1.6-5 4.1-1.9 2.9l2.9-1.2c1.2-.5 1.2 0 .1 3.3-.8 2.1-1.4 4.5-1.5 5.5 0 2.7-12.9 10.3-14.6 8.5-.3-.2.9-1.8 2.6-3.5 2.7-2.8 3.3-6.2 1-6.2-1.4 0-6 6.1-6 8 0 4.7 5.4 4.9 12.2.4l4.2-2.4c.3 0 .6 1.7.8 3.7.2 2.8.8 3.9 2.3 4.2 1.7.3 1.8.1.6-1.3-1.5-1.8-1.1-11.3.9-17.8.9-3 1.8-3.9 4.8-4.9 6.7-2.1 7-3.8.4-1.9-2.9.8-3.3.7-2.8-.6 1.4-3.8 1.8-6.4.8-6.4-.6 0-1.3.3-1.5.7zM308.3 61.6c-5.4 2-9.3 5.6-9.3 8.8 0 2.7 1.7 4 12.3 10 5.3 3 7.7 6.7 5.9 8.9-1.8 2.1-8.3 3.7-15.5 3.8-6.8.1-10.7-1.2-10.7-3.6 0-.8-.4-1.5-1-1.5-2.1 0-.9 4 1.7 5.7 2 1.3 4.7 1.8 9.8 1.8 11-.1 18.5-3.7 18.5-8.9 0-2.8-5.3-7.7-12.2-11.2-5.7-2.9-6.9-3.9-6.6-5.6.4-3.1 9.7-7.8 15.4-7.8 4.1 0 4.4.2 4.4 2.7 0 1.9.3 2.4 1.1 1.6.6-.6.9-2.1.7-3.4-.3-2.1-.9-2.4-5.3-2.6-2.7-.1-6.9.5-9.2 1.3zM245.6 62.1a194 194 0 0 0-3.6 25.7c0 2.2.4 5.2 1 6.6 1.2 3.2 3.4 3.5 2.4.3a74.5 74.5 0 0 1 1.1-24.1c1-5.2 1.2-8.3.5-9-.6-.6-1.1-.4-1.4.5zM236.6 64.2c-.2.7-.9 5.8-1.5 11.3-.8 6.7-1.7 10.8-3 12.5-2.3 3.2-5.7 3.8-6.3 1.2-.3-1.1-1.8-2.2-3.4-2.6-2.2-.6-3.1-.3-4.5 1.6-2.7 3.5-3.3 6.9-1.5 8.6 1.4 1.4 1.9 1.2 4.8-2 2.8-2.8 3.7-3.3 5.1-2.4 1.3.8 2.4.7 4.7-.6l2.9-1.7.7 3.7c.7 3.7 2.1 5.5 3.7 4.5.4-.2.3-1.1-.4-1.9-1.2-1.5-.7-22.7.7-30.2.4-2.1.2-3.2-.5-3.2-.6 0-1.3.6-1.5 1.2zm-15.3 27c-1.8 3.1-4.3 4.9-4.3 3 0-1.4 4-6.2 5.2-6.2.5 0 .2 1.4-.9 3.2zM353.6 72.1c-6.7 10.3-11.4 14.5-17.3 15.8-3.7.7-6.1.8-8 0l-2.8-1.1 2.4-1.9c1.4-1.1 3.3-1.8 4.3-1.6 1.1.3 1.8 0 1.8-.8 0-2.2-2.6-2.4-5.9-.4-4.4 2.7-4.3 6.4.2 7.8 1.9.7 4 1 4.8.7l4.1-1c2.2-.5 2.5-.3 2.1 1.3-.8 3.1 1.3 3.3 5.3.6 4.7-3.2 5.1-3.1 5.1.5 0 4 1.3 5.2 6 5.4 2.9.1 3.9.6 4.4 2.1.4 1.6 1.4 2 4.5 2.1 11 .2 11.5.3 10.3 2.3-1.9 2.9-.4 5.4 2.9 4.8 1.5-.3 4.6 0 6.9.6l4.1 1.1-3 3.7c-2.1 2.6-2.8 4.4-2.3 5.6.7 1.7.8 1.7 1.5-.2a70.7 70.7 0 0 1 17.7-16.3c6.3-4.3 7.9-5.9 6.9-6.9a38 38 0 0 0-9.1 5.6c-8.5 6.1-12.3 7.3-17 5.5-1.5-.6-1.5-.8.1-2.5 2.3-2.5 1.1-5.1-2.3-4.9-1.6.1-5.2.2-8.1.1l-5.2-.1 1.6-2.6c1.5-2.2 1.5-2.7.3-3.9-1.2-1.3-2.4-1.2-8.2.7-7.6 2.5-10.1 1.9-10.3-2.3-.1-5.1-.2-5.2-3.9-4.6l-3.4.6 5.2-6.2c6.6-7.9 10.2-13.6 9.1-14.7-.5-.4-2.6 1.8-4.8 5.1zM369 94.9c0 1.5-2.9 3.3-4.1 2.5-.9-.5-.7-1.1.6-2.1 2.2-1.5 3.5-1.7 3.5-.4zm-5 4.1c0 .5-.4 1-1 1a1 1 0 0 1-1-1c0-.6.5-1 1-1 .6 0 1 .4 1 1zm17.7 4.7c-.9.9-1.9 1.4-2.3 1.1-1-1 .6-2.8 2.4-2.8 1.5 0 1.5.1-.1 1.7zM378 106c0 .5-.4 1-1 1a1 1 0 0 1-1-1c0-.6.5-1 1-1 .6 0 1 .4 1 1zM197.5 75.2c-12.1 4.4-33.6 23.6-31 27.8.9 1.5 2.2.4 4.1-3.5A55 55 0 0 1 185 85c.5 0 1.3 2.1 1.8 4.7 1 4.5.9 4.8-2.4 8.7-3.5 4.1-5.2 8.1-4 9.3.4.4 2.4.2 4.5-.3l3.9-1.1.5 4.5a12 12 0 0 0 1.6 5.5c.9.9 1.1-.3.9-5.3l-.3-6.4 6-2.3c7.2-2.6 14.5-3 14.5-.8 0 3.8-15.6 17.2-24.9 21.4-2.4 1-3.9 2.1-3.4 2.4 1.5.9 10.9-3.8 17.1-8.7 11.2-8.6 16.1-16.3 11.6-18-3.1-1.2-9.5-.6-14.6 1.4-2.9 1.1-5.6 2-5.9 2-.4 0-.9-1.5-1.1-3.2-.5-2.9.2-4.1 5.5-9.8 7-7.6 9.7-11.7 9-13.6-.6-1.6-3.6-1.7-7.8-.2zm4.3 4a51.6 51.6 0 0 1-11.7 12.3c-.3-.4-1.1-2.4-1.7-4.5-1.2-3.9-1.1-4 2.5-6.1 3.6-2.2 11.3-5 12-4.3.2.2-.3 1.4-1.1 2.6zM188 101c0 2.4-.6 3.3-2.6 4.1-1.5.5-2.8.8-3 .6-.4-.4 4.5-7.7 5.1-7.7.3 0 .5 1.4.5 3zM153 131.7a241.4 241.4 0 0 0-16.3 17.2 189.9 189.9 0 0 0 25.6 265.7c11 9.3 23.4 17.7 24.2 16.4.3-.5-2.3-2.8-5.7-5.1a188 188 0 0 1-25.9-293.2c5.5-5.3 9.6-9.9 9.1-10.2-.5-.3-5.5 3.8-11 9.2zM404.7 122.6c-.3.3 4.8 5.8 11.2 12.2a184.2 184.2 0 0 1 52.7 96.2c3.2 14.6 4.4 44.2 2.4 60.8A188.6 188.6 0 0 1 389.1 425c-9.4 6.1-11.5 8-9.1 8 1.5 0 11.2-6.3 20-13a192.2 192.2 0 0 0 70.9-113.5 191 191 0 0 0-49.2-169.2c-8.1-8.5-16.2-15.5-17-14.7zM355.3 127.5c-2.2 1.5-6.3 11-6.3 14.4 0 1-1.4 3.9-3.1 6.5-3 4.5-3.1 5-2.1 9.4 1.3 5.8.2 8.6-4.7 11.9-4.3 2.9-3 3 1.5.2 4.8-2.9 5.7-5.2 4.9-11.6-.6-4.8-.4-5.9 1.8-9.1 1.4-2 3.3-6.6 4.1-10.2 1.9-7.4 4.2-11.2 7.7-12.1 2-.6 2.1-.7.4-.8a8 8 0 0 0-4.2 1.4z"/>
<path d="M361 129.5a22 22 0 0 0 0 3.7c.1 2.1-.4 2.9-2.4 3.4a9.5 9.5 0 0 0-4.3 2.7c-1.8 2.1-1.8 2.1.7.4a9.5 9.5 0 0 1 4.2-1.7c2.8 0 1.3 8.1-3.3 17.5-3.8 7.9-7.4 21.1-5.9 22 .4.3 1.3-2.3 1.9-5.8.7-3.4 3.1-10 5.3-14.7a33 33 0 0 0 4.6-16.5c.4-7-.1-14-.8-11zM257.1 151c-1.3.6-3.6 1.9-5.2 3.1-1.9 1.3-3.6 1.8-5 1.4-1.5-.5-1.9-.4-1.5.4.4.6 1.6 1.1 2.7 1.1s2.9.5 3.9 1c1.1.6 2.1.6 2.4.1.3-.5-.2-1.2-1.2-1.6-3.1-1.2 5.4-4.8 11.4-4.7 5.9 0 8.5 1.1 13.2 5.6 3.9 3.6 5.8 6.9 8.4 14.6 1.7 5 1.8 5.1 1.3 1.5a44 44 0 0 0-3.8-10.5c-4.4-8.7-9.4-12.3-18-12.7-3.4-.2-7.3.2-8.6.7z"/>
<path d="M266.5 159.7c1.4 1.9 2.7 5.1 3.1 7.2 2 11.9 6.6 16.2 17.2 16l4.7-.1-5.3-.9c-9.3-1.6-14.2-5.7-14.2-12.2 0-3-4.6-12.4-6.5-13.1-.8-.3-.4 1 1 3.1zM241.6 160.5c.4.8 1.2 1.5 2 1.5s1.1-.6.8-1.5c-.4-.8-1.2-1.5-2-1.5s-1.1.6-.8 1.5zM262.4 166.8c.6 4 .5 4.2-2.6 5.6-3.3 1.4-3.3 1.4-.6 1.5 1.5.1 3-.4 3.3-.9 1.3-2.1 2.5.2 2.5 4.6 0 2.8.4 4.3 1 3.9 1.5-.9 1.2-6-.5-10.2-.8-1.9-1.5-4.4-1.5-5.4s-.5-2.1-1.2-2.5c-.8-.5-.9.4-.4 3.4zM238 167.2c0 .5 1.4 2.2 3.1 3.6 6.9 5.9 7.2 6.2 6.6 10.3-.7 5.1-3 7.8-13.1 15.5-9.3 7-11.7 10.3-11.5 16.1.2 3.3.2 3.4.6.8.8-6.3 2.6-8.6 11.8-15.4 10.3-7.7 13.5-11.5 14.2-17 .5-3.3.1-4.1-2.7-6.7l-6.1-5.6c-1.6-1.4-2.9-2.2-2.9-1.6zM256 184.5c-1.9 1.9-2.9 3.5-2.4 3.5 1.3 0 6.9-5.8 6.3-6.5-.3-.2-2.1 1.1-3.9 3zM325.3 182.7c2.6.2 6.8.2 9.5 0 2.6-.2.4-.3-4.8-.3s-7.4.1-4.7.3z"/>
<path d="M302 185.1a241.1 241.1 0 0 1-34.9 4.8c-9.9.8-14.6 1.6-17.7 3.2a31.8 31.8 0 0 0-13.4 14.2l-1.8 4.1-1.1-3.5c-1-3.1-1-3-.6 1.9.3 2.9.1 6.1-.5 7.2-.8 1.4-.8 2 0 2 .6 0 1.3-.6 1.6-1.4.5-1.2 1.3-1.2 5.7.3 6.5 2.2 13.7 3.4 13.7 2.2 0-.4-1.9-1.1-4.2-1.5-2.4-.4-6.4-1.3-9-2.2l-4.7-1.5 1.4-4a32.1 32.1 0 0 1 12-15.5c3.8-2.2 6.7-2.8 19.2-4 8.2-.8 19.5-2.4 25.3-3.6a601 601 0 0 1 19-3.3c5.1-.8 6.9-1.3 4.5-1.3-2.2 0-8.7.8-14.5 1.9zM327.8 186.7c1.7.2 4.7.2 6.5 0 1.7-.2.3-.4-3.3-.4-3.6 0-5 .2-3.2.4zM317.8 187.7c1.2.2 3 .2 4 0 .9-.3-.1-.5-2.3-.4-2.2 0-3 .2-1.7.4z"/>
<path d="M304 189.9a493 493 0 0 0-19 5.9 147 147 0 0 1-16.4 4.7c-12.7 2-12.2 19.8.8 23.1 1.5.4 2.6.2 2.6-.4 0-.6-1.3-1.3-3-1.7-3.9-.8-8-5.8-8-9.6 0-4.2 2.6-8.8 5.3-9.4l6.8-1.5c2.6-.5 8.2-2.3 12.5-4 4.4-1.7 12.9-4.4 18.9-6 6.1-1.6 9.9-2.9 8.5-2.9-1.4.1-5.4.9-9 1.8zM372 198.9a22 22 0 0 1 1 6.9c0 6.5 2.2 8.7 7.8 7.7 3.4-.5 4.2-.3 5.6 1.7.9 1.2 1.6 1.8 1.6 1.2 0-3-3-4.9-7.7-4.9h-4.8l-.5-5c-.5-4.6-2.4-9.5-3.6-9.5-.2 0 0 .9.6 1.9z"/>
<path d="M305.2 200c-4 1.1-8 2.4-9 3-1.5 1-1.5 1.1.3.5a84.3 84.3 0 0 1 22-3.5c8.5 0 14.1 2.3 17.9 7.3 2.8 3.6 7.6 6.3 9.8 5.4.7-.3.3-.6-.9-.6-1.4-.1-4.3-2.3-7.4-5.6a37.6 37.6 0 0 0-9.1-7c-5.1-2-14.6-1.8-23.6.5zM292.4 215.9a16 16 0 0 0-4.9 3c-.4.7 1 .3 3.1-.8 5.6-3.1 10.6-2.7 14.7.9 4.7 4.1 8.1 5.2 16.2 5.2 4 0 8.3.6 10 1.4l3 1.4-2.4-2c-1.7-1.5-3.8-2-8-2-7.7 0-12.8-1.6-18-5.6-5-3.9-7.8-4.2-13.7-1.5zM193.8 218.6c-7.7 1.8-13 4.6-16.3 8.6a51 51 0 0 0-7.9 15.8c-.3 1.4.3.5 1.5-2 7.2-15.8 14.6-20.5 35.4-22.8l8-.9-7.5-.1c-4.1 0-10.1.6-13.2 1.4zM385 222.6a62.4 62.4 0 0 1-30.5 3.2l-5-.7 5 1.4a49.8 49.8 0 0 0 30.4-2.1c12.4-4.3 19.8-4.9 23-2 1.6 1.5 2 1.6 1.6.4-.9-2.2-5-3.8-9.8-3.8-2.3.1-8.9 1.7-14.7 3.6zM294 224.5c6.3 1.8 8.4 3.1 15.8 9.3l5.3 4.6-3.8 2.4a34.5 34.5 0 0 1-19.6 6.6c-6.4.1-7-.1-9.4-2.8-2.2-2.6-2.4-3.6-2.1-10.2.3-7.1-.3-9.2-1.6-5.8-.3.9-.6 3.7-.6 6.2 0 9.9 6.2 15.8 15.3 14.6 5.1-.6 5.9.2 3 3.2a26.5 26.5 0 0 1-12 5.4c-1.3 0-2.3.5-2.3 1.1 0 1.5 5.4.3 11-2.4 2.9-1.5 5-3.4 6-5.4 1.1-2.2 3.2-4 7.3-5.9 3.1-1.5 6.5-3.6 7.4-4.6 1.5-1.7 1.7-1.7 4.7.1 1.7 1 4.2 2.2 5.6 2.5 1.8.5 1.5.1-1.1-1.3a80.3 80.3 0 0 1-10.2-8c-7.9-7.2-13-10-19.4-10.6l-4.8-.5 5.5 1.5z"/>
<path d="M206 227c-13 1.2-21.3 7.1-32.5 22.7-8.6 11.9-7.5 12.1 1.6.2 11.7-15.3 20.2-20.7 34.8-21.6 5-.3 9.1-1 9.1-1.4 0-1-1.9-1-13 .1zM230 227.6c0 .5 1.4 3.4 3.2 6.4a83.4 83.4 0 0 0 26.3 24.8c11.2 7.2 11 5.6-.3-2a104 104 0 0 1-25.4-24.2c-2.1-3.3-3.8-5.5-3.8-5zM247.8 239.5c3 5.3 8.9 10 13.8 11 2.8.6 2.8.5-.7-1.4a68.3 68.3 0 0 1-8.9-6.8c-2.9-2.6-4.8-3.9-4.2-2.8zM393.5 239.7l-10.1 2.9c-4.5 1.3-10.8 2.8-14 3.3l-5.9.9 5 .1a49 49 0 0 0 10.5-1.4c17.5-4.8 18.1-4.9 20.8-3.4 1.5.8 2.9 2.5 3.3 3.9l.7 2.5.1-2.6c.2-4.2-5.1-7.3-10.4-6.2zM215.1 242.1c-5 1-12.4 4.3-14.2 6.5-.7.8.9.4 3.9-1.1a53.8 53.8 0 0 1 22.2-4.6l5.5-.2-4.5-.8c-5.5-.9-7.3-.9-12.9.2zM314.2 252.5a38.8 38.8 0 0 0-3.9 7.2c-1 2.6-3.2 7.7-5 11.3l-3.2 6.5 2.8-3.1c1.6-1.8 3.8-5.7 5-8.8 1.1-3.1 3.2-7.9 4.6-10.6 2.8-5.5 2.7-6.3-.3-2.5zM389.4 255.7l-2.9 5.8-4.9-.3c-5.4-.2-9.6 1.7-9.6 4.6 0 .9 1.1 3.5 2.5 5.7 3 5 3.1 8.4.3 12.1l-2.2 2.9 2.7-2.4c3.4-3.1 3.6-7.7.5-13.7-1.8-3.7-1.9-4.6-.7-6 1-1.2 2.4-1.5 5.9-1.1 5.1.6 6.2.2 7.9-3.1a45 45 0 0 0 3.7-10.2c-.2 0-1.6 2.6-3.2 5.7zM335 252.7c0 .5 1.3 3 3 5.6 3.1 5 7.5 8.2 12.5 9.3 1.6.4 5.1 1.7 7.6 3 5.1 2.5 7.3 6.4 6.4 11.3-.3 2-.2 1.8.7-.6 2.3-6.7-1.8-11.4-13.2-15.2-7.5-2.5-9.6-4-13.9-10-1.7-2.4-3.1-4-3.1-3.4zM203 263.1c-1.4.6-4.8 2.6-7.7 4.6-5.7 3.9-8.7 4.1-17.1.9a12.1 12.1 0 0 0-8.8-.5c-3.9 1-7.4 3.9-7.4 6.1 0 .4 1.4 2.3 3.1 4.2 4 4.6 3.7 8.2-1 11.3-1.9 1.3-2.9 2.3-2.3 2.3.6 0 2.4-1.2 4.1-2.6 3.8-3.2 4-6.5.6-11-3.4-4.4-3.2-6.2 1-8a13 13 0 0 1 12.5.6c6.1 3.1 9.7 2.6 17.4-2.5 5.9-3.8 7.6-4.5 11.9-4.5 9.1 0 14.4 3.7 22 15.4 1.8 2.7 4.4 5.9 5.9 7 3.2 2.3 13.5 3.4 16.4 1.8 1.5-.8.9-.9-2.3-.5-9.3 1.2-15.5-2.1-19.8-10.8-5.9-11.5-18.7-17.7-28.5-13.8zM259.7 266.9c-.4 1.8-2.4 5-4.6 7.2-4.3 4.3-4.3 4.6-.1 2.4 3.6-1.8 6.2-6.6 5.8-10.3-.3-2.6-.4-2.5-1.1.7zM296 275.7a476 476 0 0 0-1.5 39.3c-.1 31-.3 32.5-8.7 48-8 14.8-9 16.9-8.5 18.7.4 1.7.4 1.7 1.1-.2.4-1.1 2-4.5 3.6-7.5 13.8-25.3 14.6-28.6 14.2-56.6a336 336 0 0 1 2.4-48.6c.4-2.9.3-4.8-.3-4.8-.5 0-1.6 5.3-2.3 11.7zM270.5 278.2l2.1 16.3c.9 7.1 2.7 16.2 4 20.2 4.9 15 4.1 21.3-6.2 52.8a82.3 82.3 0 0 0-5 35.9c1.1 5.8 2.3 4.2 2.9-3.9.4-5.1 1.2-8.8 2.6-11.1 1.3-2.2 1.6-3.4.9-3.2-.7.2-2.1 2-3 3.9l-1.8 3.4v-4.1c0-2.3 2.7-12.9 6-23.5 9.8-31.5 10.2-36.2 5-51.3-1.8-5.3-3.9-17.6-5.5-32.9-.4-3.1-1-5.7-1.5-5.7s-.7 1.5-.5 3.2z"/>
<path d="M204.6 283.4a25 25 0 0 1-10 3.1c-9.2 1-13.3 2.5-17.4 6.3-2 1.9-2.6 2.7-1.2 1.8a30.2 30.2 0 0 1 14.1-5.6c5.2 0 13-2.6 16.4-5.4 3.8-3.2 3.1-3.2-1.9-.2zM280.1 385.4c0 1.1-1.5 4.7-3.1 8.2a26.2 26.2 0 0 0-3.2 11.8c-.1 4-.6 6-1.7 6.6-.9.5-1.1 1-.5 1 2 0 3.1-2.3 3.8-7.9a43 43 0 0 1 3.2-10.8c1.5-3.1 2.4-6.4 2.1-8-.2-1.6-.5-2-.6-.9zM247 430.4c0 2.9-2.5 3.7-8.1 2.5-7.1-1.4-26.6-1.4-30.1 0-1.6.6-2.8 1.8-2.8 2.7 0 1.1.5 1.4 1.8.9a60.4 60.4 0 0 1 24.2-1.4 94 94 0 0 1 10.9 1.5c.6.6-3.7 6.8-10.2 14.4-6 7.1-6.5 7.5-10.9 7.8-5.3.3-6.8 2.4-3.5 4.7 1.6 1.1 1.9 1.9 1.2 2.9-3.9 5.2-4.6 6.7-3.9 7.7.5.8 1.9-.2 4.4-3.1l3.7-4.3 6.9 3.8c3.8 2.1 9.5 6.3 12.7 9.3 4.2 4.1 5.7 5 5.7 3.7 0-2.7-9.6-11.6-16.8-15.6-8.7-5-7.2-5.9 9.4-5.9 28.5 0 39.2-3.9 35.4-12.9-1.7-4.2-8.5-8.4-19-11.8-8.7-2.7-8.8-2.8-8.3-5.5.4-2.1.2-2.8-1.1-2.8-.9 0-1.6.6-1.6 1.4zm13 10.5c8.3 3.2 13.9 6.9 14.6 9.8 1.4 5.5-4.9 7.3-27.1 8l-17 .6 2.8-3.4 8.3-11 5.7-7.6 3.8.8c2.2.5 6.2 1.8 8.9 2.8zM348.6 454.3c-1.9 3.8-5 6.7-7.3 6.7-.8 0-1.9-1.1-2.5-2.5-1.6-3.7-3-3-5.8 2.6a16.1 16.1 0 0 1-4.2 6c-1.7.9-1.8.7-1.2-1.8.8-3.6 3.1-7.3 5-8 2-.7 1.7-2.3-.4-2.3-2.3 0-4.7 2.5-6.1 6.3-.6 1.6-1.8 2.7-3 2.7-1 0-4.2 1.5-7 3.4l-5.1 3.5v-3.8c0-2.2-.6-4.4-1.5-5.1-1.8-1.5-1.5-1.8-4.9 4.2a35.6 35.6 0 0 1-4.2 5.9c-1.3 1.1-1.4.9-.9-1.4a9 9 0 0 0 .1-4.3c-.5-1.3-1.2-1.1-3.9 1.6-3.7 3.7-8.9 6.2-11.1 5.4-.9-.4-1.6-1.8-1.6-3.4 0-4.3-1.3-4.4-5.6-.5-3.9 3.6-7.1 5.2-8.2 4.1-1-1.1 5.3-6.7 7.6-6.9 3-.2 2.8-2.7-.2-2.7-2.6 0-8 4-9.7 7.1-2.9 5.6 3.5 8 8.9 3.4 3.6-3 4.4-3.1 6-.5 1.8 2.9 7.3 2.7 11-.5 3-2.5 3.1-2.5 3.7-.5 1.1 3.5 5.1 2.5 8.5-2.2l3-4.1v3.2c0 2.4-1.4 4.8-5.5 9.8-7.1 8.6-10.5 15.4-10.5 21.1 0 5.9 1.4 8.2 5 8.2 6.5 0 12.9-12.4 13.8-27 .5-8.4 1.1-9.5 8.2-14 5.5-3.5 6-3.6 6-1 0 1 .9 2.4 2 3 1.8.9 2.5.6 5-2 1.6-1.7 3.2-4 3.5-5.1.7-2.1 2-2.5 3-.9.8 1.3 5.1 1.3 7.6 0 2.5-1.4 5.1-6.6 4.7-9.3-.3-1.9-.6-1.7-2.2 1.6zm-41 30.3c-1.2 11.3-6.4 22.4-10.7 22.4-3.4 0-3-8.1.8-15.5a48 48 0 0 1 10-13.5c.3 0 .3 2.9-.1 6.6z"/>
</svg>
